<svg version="1.1" id="Layer_1" xmlns="http://www.w3.org/2000/svg" xmlns:xlink="http://www.w3.org/1999/xlink" x="0px" y="0px"
	 width="100%" viewBox="0 0 1600 896" enable-background="new 0 0 1600 896" xml:space="preserve">
<path fill="#1A202E" opacity="1.000000" stroke="none" 
	d="
M1504.000000,897.000000 
	C1002.666687,897.000000 501.833344,897.000000 1.000000,897.000000 
	C1.000000,598.333313 1.000000,299.666656 1.000000,1.000000 
	C534.333313,1.000000 1067.666626,1.000000 1601.000000,1.000000 
	C1601.000000,299.666656 1601.000000,598.333313 1601.000000,897.000000 
	C1568.833374,897.000000 1536.666626,897.000000 1504.000000,897.000000 
M748.512695,543.858154 
	C748.400146,544.131653 748.287598,544.405090 748.174927,544.678589 
	C748.124451,544.454590 748.073914,544.230652 746.836304,544.240234 
	C747.266846,542.039856 747.166077,539.539551 748.211975,537.686523 
	C756.459534,523.074890 764.860901,508.548248 773.427612,494.121704 
	C774.263245,492.714417 776.485962,492.065826 778.147156,491.228363 
	C780.919006,489.830994 784.342407,489.158386 786.426575,487.101593 
	C789.335938,484.230408 792.383545,483.255035 796.211853,483.311432 
	C802.876282,483.409637 809.601868,483.886627 816.192566,483.182404 
	C822.761353,482.480499 826.065735,485.228973 829.014343,490.685455 
	C837.551697,506.484131 846.645203,521.981262 855.379272,537.675354 
	C857.554871,541.584717 860.245483,543.417480 864.945496,543.089417 
	C871.247375,542.649536 877.604553,542.910278 883.935608,543.014404 
	C887.795410,543.077820 890.623352,544.800781 891.347290,548.859924 
	C891.463196,549.509949 890.638306,550.327759 890.248352,551.067993 
	C889.781311,550.384583 889.314270,549.701233 888.847168,549.017822 
	C891.040466,548.714661 893.257690,548.038269 895.422607,548.177246 
	C902.392517,548.624634 907.673279,545.700500 909.817200,539.835815 
	C911.863464,534.238342 909.575439,528.045776 904.251099,524.167175 
	C902.697205,523.035278 901.133362,521.626282 900.191284,519.989136 
	C887.567383,498.049683 875.092041,476.024811 862.501404,454.066162 
	C847.200134,427.380310 831.763550,400.771667 816.585754,374.016052 
	C815.233826,371.632690 814.797424,368.392151 814.907593,365.587891 
	C815.133545,359.839478 813.939941,355.045044 808.772644,351.820679 
	C804.203857,348.969849 799.533386,348.981934 795.094421,351.776672 
	C789.950256,355.015411 788.084351,359.737274 788.886902,365.923004 
	C789.235657,368.611176 788.561096,371.861084 787.254089,374.257385 
	C782.738159,382.536896 777.649902,390.501465 772.942932,398.679993 
	C763.179932,415.643646 753.543091,432.679871 743.815002,449.663666 
	C731.741638,470.742004 719.568909,491.763763 707.579102,512.889404 
	C704.960022,517.504089 702.814819,522.061646 698.043518,525.301819 
	C691.912598,529.465332 691.193176,537.376099 695.386597,542.984009 
	C700.023376,549.184875 706.530457,549.960144 713.459351,545.674561 
	C715.842896,544.200378 718.886780,543.287537 721.694153,543.101379 
	C729.651611,542.573608 737.642212,542.504822 745.621521,542.411316 
	C746.406677,542.402100 747.204468,543.468323 748.512695,543.858154 
z"/>
<path fill="#7E68E6" opacity="1.000000" stroke="none" 
	d="
M747.996399,544.035400 
	C747.204468,543.468323 746.406677,542.402100 745.621521,542.411316 
	C737.642212,542.504822 729.651611,542.573608 721.694153,543.101379 
	C718.886780,543.287537 715.842896,544.200378 713.459351,545.674561 
	C706.530457,549.960144 700.023376,549.184875 695.386597,542.984009 
	C691.193176,537.376099 691.912598,529.465332 698.043518,525.301819 
	C702.814819,522.061646 704.960022,517.504089 707.579102,512.889404 
	C719.568909,491.763763 731.741638,470.742004 743.815002,449.663666 
	C753.543091,432.679871 763.179932,415.643646 772.942932,398.679993 
	C777.649902,390.501465 782.738159,382.536896 787.254089,374.257385 
	C788.561096,371.861084 789.235657,368.611176 788.886902,365.923004 
	C788.084351,359.737274 789.950256,355.015411 795.094421,351.776672 
	C799.533386,348.981934 804.203857,348.969849 808.772644,351.820679 
	C813.939941,355.045044 815.133545,359.839478 814.907593,365.587891 
	C814.797424,368.392151 815.233826,371.632690 816.585754,374.016052 
	C831.763550,400.771667 847.200134,427.380310 862.501404,454.066162 
	C875.092041,476.024811 887.567383,498.049683 900.191284,519.989136 
	C901.133362,521.626282 902.697205,523.035278 904.251099,524.167175 
	C909.575439,528.045776 911.863464,534.238342 909.817200,539.835815 
	C907.673279,545.700500 902.392517,548.624634 895.422607,548.177246 
	C893.257690,548.038269 891.040466,548.714661 888.847168,549.017822 
	C889.314270,549.701233 889.781311,550.384583 890.248352,551.067993 
	C890.638306,550.327759 891.463196,549.509949 891.347290,548.859924 
	C890.623352,544.800781 887.795410,543.077820 883.935608,543.014404 
	C877.604553,542.910278 871.247375,542.649536 864.945496,543.089417 
	C860.245483,543.417480 857.554871,541.584717 855.379272,537.675354 
	C846.645203,521.981262 837.551697,506.484131 829.014343,490.685455 
	C826.065735,485.228973 822.761353,482.480499 816.192566,483.182404 
	C809.601868,483.886627 802.876282,483.409637 796.211853,483.311432 
	C792.383545,483.255035 789.335938,484.230408 786.426575,487.101593 
	C784.342407,489.158386 780.919006,489.830994 778.147156,491.228363 
	C776.485962,492.065826 774.263245,492.714417 773.427612,494.121704 
	C764.860901,508.548248 756.459534,523.074890 748.211975,537.686523 
	C747.166077,539.539551 747.266846,542.039856 747.414795,544.122437 
	C747.993286,544.004639 747.996399,544.035400 747.996399,544.035400 
M764.740662,436.259216 
	C759.405640,445.645599 754.106873,455.052826 748.727966,464.414062 
	C737.953552,483.165344 727.103149,501.873016 716.353699,520.638550 
	C712.883423,526.696777 715.676270,531.525269 722.608704,531.660278 
	C726.437866,531.734863 730.333191,532.113770 734.076050,531.546509 
	C736.341614,531.203125 739.252441,529.850891 740.367676,528.029846 
	C748.274170,515.119507 755.884644,502.023407 763.327332,488.838531 
	C764.393982,486.949005 764.661499,484.147095 764.245972,481.968262 
	C762.971985,475.288055 765.247070,469.512115 771.057434,466.209381 
	C776.033875,463.380646 782.284241,464.577057 787.033997,469.195526 
	C787.948975,470.085205 789.045166,471.432831 790.080261,471.453705 
	C798.988098,471.633362 807.901001,471.556915 817.996094,471.556915 
	C812.407288,461.565613 807.441406,452.688049 802.390808,443.658997 
	C811.239746,441.194977 814.322693,441.991333 817.190918,447.017242 
	C831.042542,471.288818 845.584167,495.202820 858.425781,519.997375 
	C863.778259,530.331909 870.389771,533.033325 880.833679,531.780273 
	C888.145569,530.902954 891.077942,526.666199 887.461975,520.367981 
	C873.711792,496.418121 859.832031,472.542694 846.065979,448.601898 
	C833.046570,425.959686 820.140015,403.252533 807.081970,380.632721 
	C805.920532,378.620819 804.008179,377.042419 802.444580,375.262665 
	C800.591797,377.022919 798.213867,378.474365 796.968750,380.591919 
	C786.224854,398.863312 775.685059,417.254700 764.740662,436.259216 
z"/>
<path fill="#7E68E6" opacity="1.000000" stroke="none" 
	d="
M748.008301,544.005615 
	C748.073914,544.230652 748.124451,544.454590 748.174927,544.678589 
	C748.287598,544.405090 748.400146,544.131653 748.254517,543.946777 
	C747.996399,544.035400 747.993286,544.004639 748.008301,544.005615 
z"/>
<path fill="#1D2438" opacity="1.000000" stroke="none" 
	d="
M764.912598,435.934784 
	C775.685059,417.254700 786.224854,398.863312 796.968750,380.591919 
	C798.213867,378.474365 800.591797,377.022919 802.444580,375.262695 
	C804.008179,377.042419 805.920532,378.620819 807.081970,380.632721 
	C820.140015,403.252533 833.046570,425.959686 846.065979,448.601898 
	C859.832031,472.542694 873.711792,496.418121 887.461975,520.367981 
	C891.077942,526.666199 888.145569,530.902954 880.833679,531.780273 
	C870.389771,533.033325 863.778259,530.331909 858.425781,519.997375 
	C845.584167,495.202820 831.042542,471.288818 817.190918,447.017242 
	C814.322693,441.991333 811.239746,441.194977 802.390808,443.658997 
	C807.441406,452.688049 812.407288,461.565613 817.996094,471.556915 
	C807.901001,471.556915 798.988098,471.633362 790.080261,471.453705 
	C789.045166,471.432831 787.948975,470.085205 787.033997,469.195526 
	C782.284241,464.577057 776.033875,463.380646 771.057434,466.209381 
	C765.247070,469.512115 762.971985,475.288055 764.245972,481.968262 
	C764.661499,484.147095 764.393982,486.949005 763.327332,488.838531 
	C755.884644,502.023407 748.274170,515.119507 740.367676,528.029846 
	C739.252441,529.850891 736.341614,531.203125 734.076050,531.546509 
	C730.333191,532.113770 726.437866,531.734863 722.608704,531.660278 
	C715.676270,531.525269 712.883423,526.696777 716.353699,520.638550 
	C727.103149,501.873016 737.953552,483.165344 748.727966,464.414062 
	C754.106873,455.052826 759.405640,445.645599 764.912598,435.934784 
z"/>
</svg>